<?xml version="1.0" encoding="utf-8"?>
<!-- Generator: Adobe Illustrator 27.2.0, SVG Export Plug-In . SVG Version: 6.00 Build 0)  -->
<svg version="1.1" id="Layer_1" xmlns="http://www.w3.org/2000/svg" xmlns:xlink="http://www.w3.org/1999/xlink" x="0px" y="0px"
	 viewBox="0 0 193.8 194.1" style="enable-background:new 0 0 193.8 194.1;" xml:space="preserve">
<style type="text/css">
	.st0{fill:none;}
	.st1{fill:#FFC7EB;}
	.st2{fill:#E8BADC;}
	.st3{fill:#F9A8D4;}
	.st4{opacity:0.54;fill:url(#SVGID_1_);}
	.st5{fill:url(#SVGID_00000142857297609808710450000012365015672345920957_);}
</style>
<pattern  x="84.7" y="59.9" width="48" height="48" patternUnits="userSpaceOnUse" id="_x36__dpi_30_x25_" viewBox="3.6 -51.6 48 48" style="overflow:visible;">
	<g>
		<rect x="3.6" y="-51.6" class="st0" width="48" height="48"/>
		<g>
			<circle class="st1" cx="27.6" cy="-3.6" r="3.6"/>
			<circle class="st1" cx="51.6" cy="-3.6" r="3.6"/>
			<circle class="st1" cx="27.6" cy="-27.6" r="3.6"/>
			<circle class="st1" cx="51.6" cy="-27.6" r="3.6"/>
			<circle class="st1" cx="39.6" cy="-15.6" r="3.6"/>
			<circle class="st1" cx="15.6" cy="-15.6" r="3.6"/>
			<circle class="st1" cx="39.6" cy="-39.6" r="3.6"/>
			<circle class="st1" cx="15.6" cy="-39.6" r="3.6"/>
			<path class="st2" d="M16.4-43.1L15.7-36c-0.1,0-0.3,0-0.5,0c-0.2,0-0.3,0-0.4-0.1c0.2-2.4,0.5-4.7,0.7-7.1c0.1,0,0.3,0,0.5,0
				C16.1-43.2,16.3-43.1,16.4-43.1z"/>
			<path class="st2" d="M17.9-18.3l-3.8,6c-0.1-0.1-0.3-0.1-0.4-0.2c-0.1-0.1-0.2-0.2-0.3-0.2c1.3-2,2.5-4,3.8-6
				c0.1,0.1,0.3,0.1,0.4,0.2C17.7-18.4,17.8-18.4,17.9-18.3z"/>
			<path class="st2" d="M25.5-30.5l4.9,5.2c-0.1,0.1-0.2,0.2-0.3,0.3c-0.1,0.1-0.2,0.2-0.3,0.3c-1.6-1.7-3.2-3.5-4.9-5.2
				c0.1-0.1,0.2-0.2,0.3-0.3C25.3-30.4,25.4-30.4,25.5-30.5z"/>
			<path class="st2" d="M36-39.3l7-1.5c0,0.1,0.1,0.3,0.1,0.5c0,0.2,0,0.3,0.1,0.4c-2.3,0.5-4.7,1-7,1.5c0-0.1-0.1-0.3-0.1-0.5
				C36-39,36-39.2,36-39.3z"/>
			<path class="st2" d="M37.1-12.9l4.3-5.7c0.1,0.1,0.3,0.2,0.4,0.3c0.1,0.1,0.2,0.2,0.3,0.3c-1.4,1.9-2.9,3.8-4.3,5.7
				c-0.1-0.1-0.3-0.2-0.4-0.3C37.3-12.7,37.2-12.8,37.1-12.9z"/>
			<path class="st2" d="M27.5,0l-0.6-7.1c0.1,0,0.3-0.1,0.5-0.1c0.2,0,0.3,0,0.4,0c0.2,2.4,0.4,4.7,0.6,7.1c-0.1,0-0.3,0.1-0.5,0.1
				C27.7,0,27.6,0,27.5,0z"/>
			<path class="st2" d="M53.1-0.3l-3.7-6.1c0.1-0.1,0.2-0.2,0.4-0.3c0.1-0.1,0.3-0.1,0.4-0.2c1.2,2,2.5,4.1,3.7,6.1
				c-0.1,0.1-0.2,0.2-0.4,0.3C53.3-0.4,53.2-0.4,53.1-0.3z"/>
			<path class="st2" d="M50.3-24.2l1.7-6.9c0.1,0,0.3,0,0.5,0.1c0.1,0,0.3,0.1,0.4,0.1c-0.6,2.3-1.1,4.6-1.7,6.9
				c-0.1,0-0.3,0-0.5-0.1C50.6-24.1,50.4-24.2,50.3-24.2z"/>
		</g>
		<g>
			<circle class="st1" cx="3.6" cy="-3.6" r="3.6"/>
			<circle class="st1" cx="3.6" cy="-27.6" r="3.6"/>
			<path class="st2" d="M5.1-0.3L1.4-6.4c0.1-0.1,0.2-0.2,0.4-0.3C1.9-6.8,2-6.8,2.1-6.9c1.2,2,2.5,4.1,3.7,6.1
				C5.7-0.7,5.6-0.6,5.5-0.5C5.3-0.4,5.2-0.4,5.1-0.3z"/>
			<path class="st2" d="M2.3-24.2L4-31.2c0.1,0,0.3,0,0.5,0.1c0.1,0,0.3,0.1,0.4,0.1c-0.6,2.3-1.1,4.6-1.7,6.9c-0.1,0-0.3,0-0.5-0.1
				C2.6-24.1,2.4-24.2,2.3-24.2z"/>
		</g>
		<g>
			<circle class="st1" cx="27.6" cy="-51.6" r="3.6"/>
			<circle class="st1" cx="51.6" cy="-51.6" r="3.6"/>
			<path class="st2" d="M27.5-48l-0.6-7.1c0.1,0,0.3-0.1,0.5-0.1c0.2,0,0.3,0,0.4,0c0.2,2.4,0.4,4.7,0.6,7.1c-0.1,0-0.3,0.1-0.5,0.1
				C27.7-48,27.6-48,27.5-48z"/>
			<path class="st2" d="M53.1-48.3l-3.7-6.1c0.1-0.1,0.2-0.2,0.4-0.3c0.1-0.1,0.3-0.1,0.4-0.2c1.2,2,2.5,4.1,3.7,6.1
				c-0.1,0.1-0.2,0.2-0.4,0.3C53.3-48.4,53.2-48.4,53.1-48.3z"/>
		</g>
		<g>
			<circle class="st1" cx="3.6" cy="-51.6" r="3.6"/>
			<path class="st2" d="M5.1-48.3l-3.7-6.1c0.1-0.1,0.2-0.2,0.4-0.3c0.1-0.1,0.3-0.1,0.4-0.2c1.2,2,2.5,4.1,3.7,6.1
				c-0.1,0.1-0.2,0.2-0.4,0.3C5.3-48.4,5.2-48.4,5.1-48.3z"/>
		</g>
	</g>
</pattern>
<rect x="0" class="st3" width="193.8" height="194.1"/>
<pattern  id="SVGID_1_" xlink:href="#_x36__dpi_30_x25_" patternTransform="matrix(1 0 0 1 89.5173 89.9546)">
</pattern>
<rect x="-6" y="-5.5" class="st4" width="200" height="200"/>
<pattern  id="SVGID_00000009555875292222801940000011969288740147740844_" xlink:href="#_x36__dpi_30_x25_" patternTransform="matrix(1 0 0 1 89.302 89.5387)">
</pattern>
<rect x="-6.2" y="-5.9" style="fill:url(#SVGID_00000009555875292222801940000011969288740147740844_);" width="200" height="200"/>
</svg>
