<?xml version="1.0" encoding="utf-8"?>
<!-- Generator: Adobe Illustrator 27.2.0, SVG Export Plug-In . SVG Version: 6.00 Build 0)  -->
<svg version="1.1" id="Layer_1" xmlns="http://www.w3.org/2000/svg" xmlns:xlink="http://www.w3.org/1999/xlink" x="0px" y="0px"
	 viewBox="0 0 193.8 194.1" style="enable-background:new 0 0 193.8 194.1;" xml:space="preserve">
<style type="text/css">
	.st0{fill:none;}
	.st1{fill:#FFC7EB;}
	.st2{fill:#E8BADC;}
	.st3{fill:#454154;}
	.st4{opacity:0.54;fill:url(#SVGID_00000067937799310819549070000018197727693733854646_);enable-background:new    ;}
	.st5{fill:url(#SVGID_00000103957703901805828690000018431854013022476176_);}
</style>
<pattern  y="194.1" width="48" height="48" patternUnits="userSpaceOnUse" id="SVGID_0000000955587529222280194" viewBox="3.6 -51.6 48 48" style="overflow:visible;">
	<g>
		<rect x="3.6" y="-51.6" class="st0" width="48" height="48"/>
		<g>
			<rect x="3.6" y="-51.6" class="st0" width="48" height="48"/>
			<g>
				<circle class="st1" cx="27.6" cy="-51.6" r="3.6"/>
				<circle class="st1" cx="51.6" cy="-51.6" r="3.6"/>
				<circle class="st1" cx="27.6" cy="-27.6" r="3.6"/>
				<circle class="st1" cx="51.6" cy="-27.6" r="3.6"/>
				<circle class="st1" cx="39.6" cy="-39.6" r="3.6"/>
				<circle class="st1" cx="15.6" cy="-39.6" r="3.6"/>
				<circle class="st1" cx="39.6" cy="-15.6" r="3.6"/>
				<circle class="st1" cx="15.6" cy="-15.6" r="3.6"/>
				<path class="st2" d="M16.4-12.1l-0.7-7.1c-0.1,0-0.3,0-0.5,0s-0.3,0-0.4,0.1c0.2,2.4,0.5,4.7,0.7,7.1c0.1,0,0.3,0,0.5,0
					C16.1-12,16.3-12.1,16.4-12.1z"/>
				<path class="st2" d="M17.9-36.9l-3.8-6c-0.1,0.1-0.3,0.1-0.4,0.2c-0.1,0.1-0.2,0.2-0.3,0.2c1.3,2,2.5,4,3.8,6
					c0.1-0.1,0.3-0.1,0.4-0.2C17.7-36.8,17.8-36.8,17.9-36.9z"/>
				<path class="st2" d="M25.5-24.7l4.9-5.2c-0.1-0.1-0.2-0.2-0.3-0.3c-0.1-0.1-0.2-0.2-0.3-0.3c-1.6,1.7-3.2,3.5-4.9,5.2
					c0.1,0.1,0.2,0.2,0.3,0.3C25.3-24.8,25.4-24.8,25.5-24.7z"/>
				<path class="st2" d="M36-15.9l7,1.5c0-0.1,0.1-0.3,0.1-0.5s0-0.3,0.1-0.4c-2.3-0.5-4.7-1-7-1.5c0,0.1-0.1,0.3-0.1,0.5
					C36-16.2,36-16,36-15.9z"/>
				<path class="st2" d="M37.1-42.3l4.3,5.7c0.1-0.1,0.3-0.2,0.4-0.3c0.1-0.1,0.2-0.2,0.3-0.3c-1.4-1.9-2.9-3.8-4.3-5.7
					c-0.1,0.1-0.3,0.2-0.4,0.3C37.3-42.5,37.2-42.4,37.1-42.3z"/>
				<path class="st2" d="M27.5-55.2l-0.6,7.1c0.1,0,0.3,0.1,0.5,0.1s0.3,0,0.4,0c0.2-2.4,0.4-4.7,0.6-7.1c-0.1,0-0.3-0.1-0.5-0.1
					C27.7-55.2,27.6-55.2,27.5-55.2z"/>
				<path class="st2" d="M53.1-54.9l-3.7,6.1c0.1,0.1,0.2,0.2,0.4,0.3c0.1,0.1,0.3,0.1,0.4,0.2c1.2-2,2.5-4.1,3.7-6.1
					c-0.1-0.1-0.2-0.2-0.4-0.3S53.2-54.8,53.1-54.9z"/>
				<path class="st2" d="M50.3-31l1.7,6.9c0.1,0,0.3,0,0.5-0.1c0.1,0,0.3-0.1,0.4-0.1c-0.6-2.3-1.1-4.6-1.7-6.9
					c-0.1,0-0.3,0-0.5,0.1C50.6-31.1,50.4-31,50.3-31z"/>
			</g>
			<g>
				<circle class="st1" cx="3.6" cy="-51.6" r="3.6"/>
				<circle class="st1" cx="3.6" cy="-27.6" r="3.6"/>
				<path class="st2" d="M5.1-54.9l-3.7,6.1c0.1,0.1,0.2,0.2,0.4,0.3c0.1,0.1,0.2,0.1,0.3,0.2c1.2-2,2.5-4.1,3.7-6.1
					c-0.1-0.1-0.2-0.2-0.3-0.3C5.3-54.8,5.2-54.8,5.1-54.9z"/>
				<path class="st2" d="M2.3-31L4-24c0.1,0,0.3,0,0.5-0.1c0.1,0,0.3-0.1,0.4-0.1c-0.6-2.3-1.1-4.6-1.7-6.9c-0.1,0-0.3,0-0.5,0.1
					C2.6-31.1,2.4-31,2.3-31z"/>
			</g>
			<g>
				<circle class="st1" cx="27.6" cy="-3.6" r="3.6"/>
				<circle class="st1" cx="51.6" cy="-3.6" r="3.6"/>
				<path class="st2" d="M27.5-7.2l-0.6,7.1C27-0.1,27.2,0,27.4,0s0.3,0,0.4,0c0.2-2.4,0.4-4.7,0.6-7.1c-0.1,0-0.3-0.1-0.5-0.1
					C27.7-7.2,27.6-7.2,27.5-7.2z"/>
				<path class="st2" d="M53.1-6.9l-3.7,6.1c0.1,0.1,0.2,0.2,0.4,0.3c0.1,0.1,0.3,0.1,0.4,0.2c1.2-2,2.5-4.1,3.7-6.1
					c-0.1-0.1-0.2-0.2-0.4-0.3S53.2-6.8,53.1-6.9z"/>
			</g>
			<g>
				<circle class="st1" cx="3.6" cy="-3.6" r="3.6"/>
				<path class="st2" d="M5.1-6.9L1.4-0.8c0.1,0.1,0.2,0.2,0.4,0.3c0.1,0.1,0.3,0.1,0.4,0.2c1.2-2,2.5-4.1,3.7-6.1
					C5.8-6.5,5.7-6.6,5.5-6.7C5.3-6.8,5.2-6.8,5.1-6.9z"/>
			</g>
		</g>
	</g>
</pattern>
<pattern  y="194.1" width="48" height="48" patternUnits="userSpaceOnUse" id="SVGID_1_" viewBox="3.6 -51.6 48 48" style="overflow:visible;">
	<g>
		<rect x="3.6" y="-51.6" class="st0" width="48" height="48"/>
		<g>
			<rect x="3.6" y="-51.6" class="st0" width="48" height="48"/>
			<g>
				<circle class="st1" cx="27.6" cy="-51.6" r="3.6"/>
				<circle class="st1" cx="51.6" cy="-51.6" r="3.6"/>
				<circle class="st1" cx="27.6" cy="-27.6" r="3.6"/>
				<circle class="st1" cx="51.6" cy="-27.6" r="3.6"/>
				<circle class="st1" cx="39.6" cy="-39.6" r="3.6"/>
				<circle class="st1" cx="15.6" cy="-39.6" r="3.6"/>
				<circle class="st1" cx="39.6" cy="-15.6" r="3.6"/>
				<circle class="st1" cx="15.6" cy="-15.6" r="3.6"/>
				<path class="st2" d="M16.4-12.1l-0.7-7.1c-0.1,0-0.3,0-0.5,0s-0.3,0-0.4,0.1c0.2,2.4,0.5,4.7,0.7,7.1c0.1,0,0.3,0,0.5,0
					C16.1-12,16.3-12.1,16.4-12.1z"/>
				<path class="st2" d="M17.9-36.9l-3.8-6c-0.1,0.1-0.3,0.1-0.4,0.2c-0.1,0.1-0.2,0.2-0.3,0.2c1.3,2,2.5,4,3.8,6
					c0.1-0.1,0.3-0.1,0.4-0.2C17.7-36.8,17.8-36.8,17.9-36.9z"/>
				<path class="st2" d="M25.5-24.7l4.9-5.2c-0.1-0.1-0.2-0.2-0.3-0.3c-0.1-0.1-0.2-0.2-0.3-0.3c-1.6,1.7-3.2,3.5-4.9,5.2
					c0.1,0.1,0.2,0.2,0.3,0.3C25.3-24.8,25.4-24.8,25.5-24.7z"/>
				<path class="st2" d="M36-15.9l7,1.5c0-0.1,0.1-0.3,0.1-0.5s0-0.3,0.1-0.4c-2.3-0.5-4.7-1-7-1.5c0,0.1-0.1,0.3-0.1,0.5
					C36-16.2,36-16,36-15.9z"/>
				<path class="st2" d="M37.1-42.3l4.3,5.7c0.1-0.1,0.3-0.2,0.4-0.3c0.1-0.1,0.2-0.2,0.3-0.3c-1.4-1.9-2.9-3.8-4.3-5.7
					c-0.1,0.1-0.3,0.2-0.4,0.3C37.3-42.5,37.2-42.4,37.1-42.3z"/>
				<path class="st2" d="M27.5-55.2l-0.6,7.1c0.1,0,0.3,0.1,0.5,0.1s0.3,0,0.4,0c0.2-2.4,0.4-4.7,0.6-7.1c-0.1,0-0.3-0.1-0.5-0.1
					C27.7-55.2,27.6-55.2,27.5-55.2z"/>
				<path class="st2" d="M53.1-54.9l-3.7,6.1c0.1,0.1,0.2,0.2,0.4,0.3c0.1,0.1,0.3,0.1,0.4,0.2c1.2-2,2.5-4.1,3.7-6.1
					c-0.1-0.1-0.2-0.2-0.4-0.3S53.2-54.8,53.1-54.9z"/>
				<path class="st2" d="M50.3-31l1.7,6.9c0.1,0,0.3,0,0.5-0.1c0.1,0,0.3-0.1,0.4-0.1c-0.6-2.3-1.1-4.6-1.7-6.9
					c-0.1,0-0.3,0-0.5,0.1C50.6-31.1,50.4-31,50.3-31z"/>
			</g>
			<g>
				<circle class="st1" cx="3.6" cy="-51.6" r="3.6"/>
				<circle class="st1" cx="3.6" cy="-27.6" r="3.6"/>
				<path class="st2" d="M5.1-54.9l-3.7,6.1c0.1,0.1,0.2,0.2,0.4,0.3c0.1,0.1,0.2,0.1,0.3,0.2c1.2-2,2.5-4.1,3.7-6.1
					c-0.1-0.1-0.2-0.2-0.3-0.3C5.3-54.8,5.2-54.8,5.1-54.9z"/>
				<path class="st2" d="M2.3-31L4-24c0.1,0,0.3,0,0.5-0.1c0.1,0,0.3-0.1,0.4-0.1c-0.6-2.3-1.1-4.6-1.7-6.9c-0.1,0-0.3,0-0.5,0.1
					C2.6-31.1,2.4-31,2.3-31z"/>
			</g>
			<g>
				<circle class="st1" cx="27.6" cy="-3.6" r="3.6"/>
				<circle class="st1" cx="51.6" cy="-3.6" r="3.6"/>
				<path class="st2" d="M27.5-7.2l-0.6,7.1C27-0.1,27.2,0,27.4,0s0.3,0,0.4,0c0.2-2.4,0.4-4.7,0.6-7.1c-0.1,0-0.3-0.1-0.5-0.1
					C27.7-7.2,27.6-7.2,27.5-7.2z"/>
				<path class="st2" d="M53.1-6.9l-3.7,6.1c0.1,0.1,0.2,0.2,0.4,0.3c0.1,0.1,0.3,0.1,0.4,0.2c1.2-2,2.5-4.1,3.7-6.1
					c-0.1-0.1-0.2-0.2-0.4-0.3S53.2-6.8,53.1-6.9z"/>
			</g>
			<g>
				<circle class="st1" cx="3.6" cy="-3.6" r="3.6"/>
				<path class="st2" d="M5.1-6.9L1.4-0.8c0.1,0.1,0.2,0.2,0.4,0.3c0.1,0.1,0.3,0.1,0.4,0.2c1.2-2,2.5-4.1,3.7-6.1
					C5.8-6.5,5.7-6.6,5.5-6.7C5.3-6.8,5.2-6.8,5.1-6.9z"/>
			</g>
		</g>
	</g>
</pattern>
<rect class="st3" width="193.8" height="194.1"/>
<pattern  id="SVGID_00000047741149452678852180000005897122554780730292_" xlink:href="#SVGID_1_" patternTransform="matrix(1 0 0 -1 186.6173 -16078.8545)">
</pattern>
<rect x="-6" y="-5.5" style="opacity:0.54;fill:url(#SVGID_00000047741149452678852180000005897122554780730292_);enable-background:new    ;" width="200" height="200"/>
<pattern  id="SVGID_00000128452094922310253410000014013129410813915024_" xlink:href="#SVGID_0000000955587529222280194" patternTransform="matrix(1 0 0 -1 186.402 -16078.4385)">
</pattern>
<rect x="-6.2" y="-5.9" style="fill:url(#SVGID_00000128452094922310253410000014013129410813915024_);" width="200" height="200"/>
</svg>
