<?xml version="1.0" encoding="utf-8"?>
<!-- Generator: Adobe Illustrator 27.2.0, SVG Export Plug-In . SVG Version: 6.00 Build 0)  -->
<svg version="1.1" id="Layer_1" xmlns="http://www.w3.org/2000/svg" xmlns:xlink="http://www.w3.org/1999/xlink" x="0px" y="0px"
	 viewBox="0 0 99.8 100" style="enable-background:new 0 0 99.8 100;" xml:space="preserve">
<style type="text/css">
	.st0{fill:#6D51C8;}
</style>
<image style="display:none;overflow:visible;enable-background:new    ;" width="355" height="252" xlink:href="../../../Neady/needy-streamer-overload-ame-chan.gif"  transform="matrix(0.3941 0 0 0.3941 104.4897 -0.1002)">
</image>
<g>
	<rect x="0.1" y="89.9" class="st0" width="99.7" height="10.1"/>
	<rect y="0.2" class="st0" width="10.1" height="99.8"/>
	<rect x="89.7" y="0.2" class="st0" width="10.1" height="99.8"/>
	<rect x="0.1" y="0" class="st0" width="99.7" height="10.1"/>
	<rect x="10.1" y="10.1" class="st0" width="10.2" height="9.8"/>
	<rect x="20.3" y="19.9" class="st0" width="10.2" height="9.8"/>
	<rect x="30.4" y="29.8" class="st0" width="10.2" height="9.8"/>
	<rect x="79.5" y="10.1" class="st0" width="10.2" height="9.8"/>
	<rect x="69.3" y="19.9" class="st0" width="10.2" height="9.8"/>
	<rect x="59.2" y="29.8" class="st0" width="10.2" height="9.8"/>
	<rect x="10.1" y="80.1" class="st0" width="10.2" height="9.8"/>
	<rect x="20.3" y="70.2" class="st0" width="10.2" height="9.8"/>
	<rect x="30.4" y="60.4" class="st0" width="10.2" height="9.8"/>
	<rect x="80.1" y="80.1" class="st0" width="10.2" height="9.8"/>
	<rect x="69.9" y="70.2" class="st0" width="10.2" height="9.8"/>
	<rect x="59.8" y="60.4" class="st0" width="10.2" height="9.8"/>
	<rect x="40.6" y="39.6" class="st0" width="18.6" height="20.8"/>
</g>
</svg>
