<?xml version="1.0" encoding="utf-8"?>
<!-- Generator: Adobe Illustrator 27.2.0, SVG Export Plug-In . SVG Version: 6.00 Build 0)  -->
<svg version="1.1" id="Layer_1" xmlns="http://www.w3.org/2000/svg" xmlns:xlink="http://www.w3.org/1999/xlink" x="0px" y="0px"
	 viewBox="0 0 500 500" style="enable-background:new 0 0 500 500;" xml:space="preserve">
<style type="text/css">
	.st0{fill:#E864C0;}
	.st1{fill:#5CFDFF;}
	.st2{fill:#EFE278;}
	.st3{fill:#88CF7F;}
</style>
<g>
	<rect x="435.9" y="92" width="61.9" height="340.5"/>
	<rect x="188.3" y="92" width="61.9" height="340.5"/>
	<rect x="249.7" y="246.8" width="31.5" height="30.9"/>
	<rect x="281.2" y="215.9" width="31.5" height="30.9"/>
	<rect x="312.1" y="61.1" width="61.9" height="340.5"/>
	<rect x="250.2" y="61.1" width="185.7" height="62.6"/>
	<rect x="249.7" y="123.7" width="31.5" height="30.9"/>
	<rect x="404.5" y="123.7" width="31.5" height="30.9"/>
	<rect x="374" y="215.9" width="31.5" height="30.9"/>
	<rect x="404.5" y="246.8" width="31.5" height="30.9"/>
	<rect x="281.2" y="339.7" width="124.3" height="30.9"/>
	<rect x="250.2" y="370.6" width="185.7" height="31.1"/>
	<rect x="404.5" y="401.6" width="31.5" height="30.9"/>
	<rect x="64.4" y="401.6" width="216.8" height="30.9"/>
	<rect x="64.4" y="122.9" width="216.8" height="31.7"/>
	<rect x="64.4" y="92" width="31.5" height="30.9"/>
	<rect x="126.4" y="92" width="62" height="30.9"/>
	<rect x="2.3" y="92" width="31.5" height="62.6"/>
	<rect x="2.5" y="370.6" width="30.8" height="61.9"/>
	<rect x="126.3" y="370.7" width="62" height="31"/>
	<rect x="64.4" y="370.7" width="31" height="31.1"/>
	<rect x="2.2" y="184.6" class="st0" width="31.5" height="62.6"/>
	<rect x="2.3" y="277.1" class="st1" width="31.5" height="62.6"/>
	<rect x="64.6" y="215.9" class="st0" width="123.7" height="30.9"/>
	<rect x="126.4" y="185.8" class="st0" width="62" height="30.9"/>
	<rect x="126.4" y="277.5" class="st1" width="62" height="30.9"/>
	<rect x="64.4" y="307.9" class="st1" width="124" height="30.9"/>
	<rect x="64.4" y="185.8" class="st0" width="31.5" height="30.9"/>
	<rect x="64.4" y="277.5" class="st1" width="31.5" height="30.9"/>
	<rect x="250.2" y="154.6" class="st0" width="31" height="92.2"/>
	<rect x="281.2" y="123.7" class="st0" width="30.8" height="92.2"/>
	<rect x="250.3" y="278.1" class="st1" width="31" height="92.2"/>
	<rect x="281.3" y="247.2" class="st1" width="30.8" height="92.2"/>
	<rect x="374" y="246.8" class="st2" width="31" height="92.9"/>
	<rect x="405" y="277.7" class="st2" width="30.8" height="92.9"/>
	<rect x="374.6" y="122.6" class="st3" width="31" height="92.9"/>
	<rect x="405.6" y="153.5" class="st3" width="30.8" height="92.9"/>
</g>
</svg>
